<svg width="80" height="16" viewBox="0 0 80 16" fill="none" xmlns="http://www.w3.org/2000/svg">
<g clip-path="url(#clip0_1_7468)">
<path d="M35.5121 2.23812V0H24.5352V2.23812H28.7518V14.3869H31.1544V2.21789L35.5121 2.23812Z" fill="white"/>
<path d="M75.386 16L74.9179 14.5747C74.8644 14.4077 74.7613 14.2601 74.6216 14.1507C74.482 14.0413 74.3123 13.9751 74.134 13.9604H72.0153C71.8555 13.9604 71.3855 14.0506 71.1787 14.7273L70.7031 16H75.386Z" fill="#46A4EF"/>
<path d="M2.35059 15.9999H7.33241L6.61239 14.5434C6.53034 14.3725 6.39984 14.2282 6.23641 14.1278C6.08843 14.039 5.92546 13.9767 5.75514 13.9438H0.21875L0.953803 15.2643C0.953803 15.2643 1.25647 15.9723 2.35059 15.9999Z" fill="#46A4EF"/>
<path d="M79.9996 14.6608L74.6662 0.73182L74.6455 0.671773L74.5986 0.562938C74.5488 0.423909 74.465 0.299549 74.3548 0.201213C74.2445 0.102877 74.1114 0.0337006 73.9676 0H71.6201C71.426 0.0424836 71.2543 0.154656 71.1375 0.315245L65.6406 14.6608H68.2266L72.4314 3.58967L72.529 3.42266C72.529 3.42266 72.7168 2.92165 73.0924 3.33635L77.1451 14.6664L79.9996 14.6608Z" fill="white"/>
<path d="M55.9378 14.0889L61.4422 0.0146484H58.5885L54.4865 11.0342C54.4722 11.0657 54.4518 11.0941 54.4263 11.1178C54.4008 11.1415 54.3708 11.16 54.3379 11.1723C54.3051 11.1846 54.2701 11.1904 54.2349 11.1895C54.1998 11.1885 54.1651 11.1807 54.1331 11.1666L54.0503 11.1115L49.9239 0.0146484H47.0664L52.5408 14.0172C52.6386 14.1852 52.7926 14.3151 52.9769 14.385H55.5129C55.682 14.3338 55.8306 14.2322 55.9378 14.0944" fill="white"/>
<path d="M10.0087 9.19524C10.0087 9.19524 10.0087 10.0247 9.44477 9.33501L2.78794 0.356775C2.58114 0 1.77465 0 1.77465 0H0V12.3437H5.52888L4.81826 11.0343C4.81826 11.0343 4.51371 10.3171 3.41959 10.2987L2.46835 10.2876V4.90474C2.59054 4.29786 2.99097 4.86244 2.99097 4.86244V4.84773L9.71924 13.9768C10.0249 14.209 10.402 14.3328 10.7889 14.328H12.2665V0.0147124H10.0106L10.0087 9.19524Z" fill="white"/>
<path d="M64.8995 14.3869V0.0147124H64.8901V0H62.4688V0.0147124V14.3869V14.4163H64.8901V14.3869H64.8995Z" fill="white"/>
<path d="M23.4047 12.1635H16.3023V8.20583H21.5661L20.848 6.60218C20.6844 6.24909 20.472 5.99714 19.8121 5.96036H16.3023V2.23812H23.4047V0H13.8828V14.4016H23.4065L23.4047 12.1635Z" fill="white"/>
<path d="M46.1508 12.1635H39.0484V8.20583H44.3122L43.594 6.60218C43.4305 6.24909 43.2181 5.99714 42.5582 5.96036H39.0484V2.23812H46.1508V0H36.6289V14.4016H46.1526L46.1508 12.1635Z" fill="white"/>
</g>
<defs>
<clipPath id="clip0_1_7468">
<rect width="80" height="16" fill="white"/>
</clipPath>
</defs>
</svg>
