<svg width="20" height="16" viewBox="0 0 20 16" fill="none" xmlns="http://www.w3.org/2000/svg">
<path d="M12.2959 0.511721L19.0459 7.26172C19.1508 7.36624 19.234 7.49043 19.2908 7.62717C19.3476 7.76392 19.3768 7.91053 19.3768 8.0586C19.3768 8.20666 19.3476 8.35327 19.2908 8.49002C19.234 8.62676 19.1508 8.75095 19.0459 8.85547L12.2959 15.6055C12.0846 15.8168 11.7979 15.9355 11.4991 15.9355C11.2002 15.9355 10.9135 15.8168 10.7022 15.6055C10.4908 15.3941 10.3721 15.1075 10.3721 14.8086C10.3721 14.5097 10.4908 14.2231 10.7022 14.0117L15.5313 9.18266L1.75 9.18266C1.45163 9.18266 1.16548 9.06413 0.954505 8.85315C0.743527 8.64217 0.625 8.35603 0.625 8.05766C0.625 7.75929 0.743527 7.47314 0.954505 7.26216C1.16548 7.05118 1.45163 6.93266 1.75 6.93266L15.5313 6.93266L10.7013 2.1036C10.4899 1.89225 10.3712 1.60561 10.3712 1.30672C10.3712 1.00784 10.4899 0.721192 10.7013 0.509847C10.9126 0.298502 11.1992 0.179768 11.4981 0.179768C11.797 0.179768 12.0837 0.298502 12.295 0.509847L12.2959 0.511721Z" fill="black"/>
</svg>
