<svg width="28" height="24" viewBox="0 0 28 24" fill="none" xmlns="http://www.w3.org/2000/svg">
<path d="M6.5 6L10.6718 8.7812C12.285 9.8567 13.0917 10.3944 14 10.3944C14.9083 10.3944 15.715 9.8567 17.3282 8.7812L21.5 6M11.6 23H17.4C20.7603 23 22.4405 23 23.7239 22.346C24.8529 21.7708 25.7708 20.8529 26.346 19.7239C27 18.4405 27 16.7603 27 13.4V10.6C27 7.23968 27 5.55953 26.346 4.27606C25.7708 3.14708 24.8529 2.2292 23.7239 1.65396C22.4405 1 20.7603 1 17.4 1H11.6C8.23969 1 5.55953 1 4.27606 1.65396C3.14708 2.2292 2.2292 3.14708 1.65396 4.27606C1 5.55953 1 7.23969 1 10.6V13.4C1 16.7603 1 18.4405 1.65396 19.7239C2.2292 20.8529 3.14708 21.7708 4.27606 22.346C5.55953 23 8.23969 23 11.6 23Z" stroke="#323232" stroke-width="2" stroke-linecap="round"/>
</svg>
