<svg width="25" height="22" viewBox="0 0 25 22" fill="none" xmlns="http://www.w3.org/2000/svg">
<path d="M10.8216 19.8076L11.5273 19.099L10.8216 19.8076ZM2.77282 11.7912L2.06714 12.4997L2.77282 11.7912ZM14.1784 19.8076L14.8841 20.5161L14.1784 19.8076ZM11.3327 3.26569L12.0384 2.55716L12.0384 2.55716L11.3327 3.26569ZM22.2272 11.7912L21.5215 11.0826L22.2272 11.7912ZM13.6673 3.26569L14.3729 3.97422V3.97422L13.6673 3.26569ZM12.5 4.42825L11.7943 5.13678C12.1845 5.52541 12.8155 5.52541 13.2057 5.13678L12.5 4.42825ZM11.5273 19.099L3.4785 11.0827L2.06714 12.4997L10.1159 20.5161L11.5273 19.099ZM13.4727 19.099C12.936 19.6337 12.064 19.6337 11.5273 19.099L10.1159 20.5161C11.4331 21.828 13.5669 21.828 14.8841 20.5161L13.4727 19.099ZM3.4785 3.97422C5.45206 2.00859 8.6535 2.00859 10.6271 3.97422L12.0384 2.55716C9.28447 -0.185719 4.82109 -0.185719 2.06714 2.55716L3.4785 3.97422ZM2.06714 2.55716C-0.689046 5.30225 -0.689046 9.75461 2.06714 12.4997L3.4785 11.0827C1.50717 9.11925 1.50717 5.93762 3.4785 3.97422L2.06714 2.55716ZM21.5215 11.0826L13.4727 19.099L14.8841 20.5161L22.9329 12.4997L21.5215 11.0826ZM21.5215 3.97422C23.4928 5.93762 23.4928 9.11925 21.5215 11.0826L22.9329 12.4997C25.689 9.75461 25.689 5.30225 22.9329 2.55716L21.5215 3.97422ZM14.3729 3.97422C16.3465 2.00859 19.5479 2.00859 21.5215 3.97422L22.9329 2.55716C20.1789 -0.185719 15.7155 -0.185718 12.9616 2.55716L14.3729 3.97422ZM13.2057 5.13678L14.3729 3.97422L12.9616 2.55716L11.7943 3.71972L13.2057 5.13678ZM10.6271 3.97422L11.7943 5.13678L13.2057 3.71972L12.0384 2.55716L10.6271 3.97422Z" fill="#323232"/>
</svg>
