<svg width="40" height="40" viewBox="0 0 40 40" fill="none" xmlns="http://www.w3.org/2000/svg">
<path d="M19.9987 3.33325C13.5487 3.33325 8.33203 8.54992 8.33203 14.9999C8.33203 23.7499 19.9987 36.6666 19.9987 36.6666C19.9987 36.6666 31.6654 23.7499 31.6654 14.9999C31.6654 8.54992 26.4487 3.33325 19.9987 3.33325ZM11.6654 14.9999C11.6654 10.3999 15.3987 6.66659 19.9987 6.66659C24.5987 6.66659 28.332 10.3999 28.332 14.9999C28.332 19.7999 23.532 26.9833 19.9987 31.4666C16.532 27.0166 11.6654 19.7499 11.6654 14.9999Z" fill="white"/>
<path d="M19.9987 19.1666C22.2999 19.1666 24.1654 17.3011 24.1654 14.9999C24.1654 12.6987 22.2999 10.8333 19.9987 10.8333C17.6975 10.8333 15.832 12.6987 15.832 14.9999C15.832 17.3011 17.6975 19.1666 19.9987 19.1666Z" fill="white"/>
</svg>
